HIERARCHY
ROOT pelvis
{
  OFFSET 0 100 0
  CHANNELS 6 Xposition Yposition Zposition Zrotation Xrotation Yrotation
  JOINT pelvis_right_femur
  {
    OFFSET -10.78128 -3.44521 -0.5502486
    CHANNELS 3 Zrotation Xrotation Yrotation
    JOINT right_femur_tibia
    {
      OFFSET -0.8047443 -44.0398 -0.1307829
      CHANNELS 3 Zrotation Xrotation Yrotation
      JOINT right_tibia_foot
      {
        OFFSET 3.006224 -47.83518 -5
        CHANNELS 3 Zrotation Xrotation Yrotation
        End Site
        {
          OFFSET 0 -5 15
        }
      }
    }
  }
  JOINT pelvis_left_femur
  {
    OFFSET 10.78128 -3.44521 -0.5502486
    CHANNELS 3 Zrotation Xrotation Yrotation
    JOINT left_femur_tibia
    {
      OFFSET 0.8047443 -44.0398 -0.1307829
      CHANNELS 3 Zrotation Xrotation Yrotation
      JOINT left_tibia_foot
      {
        OFFSET -4.370144 -48.10324 -4.275266
        CHANNELS 3 Zrotation Xrotation Yrotation
        End Site
        {
          OFFSET 0 -5 15
        }
      }
    }
  }
  JOINT pelvis_spine1
  {
    OFFSET 0 6.468898 -3.129235
    CHANNELS 3 Zrotation Xrotation Yrotation
    JOINT spine1
    {
      OFFSET 0 23.15396 4.99043
      CHANNELS 3 Zrotation Xrotation Yrotation
      JOINT spine2
      {
        OFFSET 0 20.79997 -5.064912
        CHANNELS 3 Zrotation Xrotation Yrotation
        JOINT neck
        {
          OFFSET 0 14.38658 9.616178
          CHANNELS 3 Zrotation Xrotation Yrotation
          End Site
          {
            OFFSET 0 20 0
          }
        }
      }
      JOINT right_manubrium
      {
        OFFSET -5.722621 16.35077 3.967754
        CHANNELS 3 Zrotation Xrotation Yrotation
        JOINT right_clavicle
        {
          OFFSET -13.16364 1.694482 -4.693211
          CHANNELS 3 Zrotation Xrotation Yrotation
          JOINT right_humerus
          {
            OFFSET -28.5034 -0.3100689 -2.792744
            CHANNELS 3 Zrotation Xrotation Yrotation
            JOINT right_radius
            {
              OFFSET -25.15693 0.02248979 -1.271978
              CHANNELS 3 Zrotation Xrotation Yrotation
              End Site
              {
                OFFSET -15 0 0
              }
            }
          }
        }
      }
      JOINT left_manubrium
      {
        OFFSET 5.722621 16.35077 3.967754
        CHANNELS 3 Zrotation Xrotation Yrotation
        JOINT left_clavicle
        {
          OFFSET 13.16364 1.694482 -4.693211
          CHANNELS 3 Zrotation Xrotation Yrotation
          JOINT left_humerus
          {
            OFFSET 29.39168 -1.063119 -2.237045
            CHANNELS 3 Zrotation Xrotation Yrotation
            JOINT left_radius
            {
              OFFSET 24.59957 -0.9528479 0.9047498
              CHANNELS 3 Zrotation Xrotation Yrotation
              End Site
              {
                OFFSET 15 -0 -0
              }
            }
          }
        }
      }
    }
  }
}
MOTION
Frames: 19
Frame Time: 0.0416666666667
0 103.5113 0 -0.3052646 -1.294893 -0.1512148 6.004563 -15.49286 10.65842 -0 37.03397 -0 -7.517606 -21.33428 -4.920578 -5.394911 8.075187 -20.50007 -0 4.927027 -0 16.98879 -9.225236 26.62008 -2.538755 -2.329814 4.799171 2.681707 9.789552 -7.097948 1.44598 21.40778 6.585989 2.562773 -25.56291 10.08446 5.463667 -19.00107 11.17722 85.66786 37.6784 -17.26712 -0 0 14.6992 -6.942817 8.381559 5.001667 6.011544 -19.7486 -1.127363 -91.19399 21.39608 19.88546 0 0 -16.62349 14.32244 12.75803 -3.054656
0.430219 103.5953 1.570942 -0.4958258 -0.1698319 -0.2193647 6.709197 -18.2287 11.40267 -0 36.8182 -0 -6.639429 -21.06036 -4.837481 -5.54815 8.579661 -20.56619 -0 5.328354 -0 17.02844 -10.1177 26.46421 -2.513325 -2.229908 4.613476 2.77328 9.635222 -7.25243 1.529184 21.14685 6.882936 2.684173 -26.23807 10.64435 5.272972 -19.14569 11.02562 86.72334 38.40234 -18.42862 -0 0 14.37957 -5.706046 8.011656 4.151232 6.311851 -19.69526 -1.301142 -90.68189 21.36575 19.43211 0 0 -18.83227 15.04632 12.1957 -3.726234
0.7769329 103.5205 3.461081 -0.2031954 -0.7091641 -0.3028753 6.357947 -20.15958 9.377624 -0 34.05119 -0 -7.155045 -16.53318 -4.06979 -5.899983 10.63137 -20.30817 -0 7.132168 -0 14.6347 -12.97551 25.90516 -2.451696 -2.185639 4.535757 2.7862 9.824694 -7.433226 1.478946 21.06142 6.880682 2.786644 -25.99567 10.37317 5.35097 -18.95609 11.08944 87.08219 38.22713 -19.10239 -0 0 13.82694 -6.088852 8.183102 4.282484 6.384383 -20.04444 -1.464676 -90.33054 21.49635 18.98577 0 0 -19.56213 14.58254 12.04931 -3.058428
1.0753 103.4086 5.619011 -0.20032 -0.2215129 -0.3278528 6.509871 -22.70388 8.416231 -0 31.4295 -0 -7.04829 -13.8493 -3.530652 -6.071614 11.58135 -19.83118 -0 8.195982 -0 13.15685 -14.94925 25.02806 -2.457412 -2.155391 4.527381 2.782674 9.852813 -7.439938 1.471902 21.06069 6.862632 2.792117 -25.90688 10.30817 5.358618 -18.91598 11.10578 87.06544 38.2477 -19.07004 -0 0 13.75497 -6.220945 8.236393 4.35151 6.380754 -20.07552 -1.488652 -90.19497 21.36805 18.82644 0 0 -19.62722 14.60015 11.97451 -3.105208
1.332549 103.2234 8.040503 -0.2503349 0.4656931 -0.2786942 6.660015 -25.176 7.707019 -0 28.86335 -0 -6.77195 -11.67554 -3.103819 -6.173905 12.30963 -19.38193 -0 8.816473 -0 11.56708 -16.79496 24.05026 -2.466002 -2.119764 4.527258 2.771239 9.911877 -7.442904 1.454029 21.08021 6.810328 2.792084 -25.71339 10.16002 5.390903 -18.83717 11.14287 86.96072 38.20449 -18.94859 -0 0 13.66144 -6.522313 8.350617 4.523954 6.351958 -20.13363 -1.512084 -90.04177 21.20119 18.62873 0 0 -19.53981 14.54243 11.91479 -3.085854
1.558812 102.9768 10.796 -0.4119183 1.236011 -0.147242 6.967363 -27.51617 7.076516 -0 26.05495 -0 -6.618668 -9.642561 -2.705202 -6.150088 12.78758 -18.66503 -0 9.713871 -0 10.2758 -18.04911 22.84277 -2.481197 -2.088223 4.537066 2.757068 9.950156 -7.424328 1.441994 21.10946 6.757116 2.78081 -25.54349 10.04021 5.414022 -18.7802 11.17302 86.81258 38.17854 -18.74659 -0 0 13.63265 -6.784403 8.444293 4.68435 6.314863 -20.15154 -1.517447 -89.92902 21.01867 18.48251 0 0 -19.36833 14.53306 11.87048 -3.137915
1.759856 102.6913 13.9372 -0.6543838 1.954873 0.06618378 7.341195 -29.46475 6.51121 -0 23.36495 -0 -6.618016 -7.756401 -2.345916 -6.010158 13.12724 -17.82078 -0 10.97358 -0 9.071508 -18.73912 21.4759 -2.498273 -2.05363 4.54884 2.740713 9.988396 -7.400764 1.4302 21.1418 6.699672 2.767657 -25.36178 9.914757 5.436398 -18.72204 11.20445 86.64784 38.15096 -18.51726 -0 0 13.61079 -7.063378 8.54089 4.856899 6.274147 -20.16418 -1.522238 -89.81118 20.81785 18.32984 0 0 -19.17729 14.52731 11.82177 -3.201883
1.939164 102.4114 17.52551 -0.975304 2.528115 0.3508704 7.75701 -30.82747 5.936365 -0 20.91497 -0 -6.860058 -5.955809 -1.99791 -5.74307 13.32423 -16.838 -0 12.97291 -0 7.879176 -18.73699 19.89633 -2.517503 -2.018425 4.563618 2.722567 10.02098 -7.369818 1.420231 21.17712 6.641026 2.751537 -25.18212 9.795209 5.455328 -18.66954 11.23427 86.46815 38.1277 -18.25898 -0 0 13.60772 -7.337127 8.6316 5.02993 6.230854 -20.16432 -1.522998 -89.70063 20.60574 18.18675 0 0 -18.96356 14.53548 11.77354 -3.288603
2.099642 102.1999 21.59839 -1.342564 2.877404 0.6807501 8.143926 -31.37217 5.323942 -0 18.92464 -0 -7.352874 -4.342765 -1.662602 -5.366319 13.31269 -15.78086 -0 15.96612 -0 6.601263 -17.99531 18.12131 -2.538991 -1.980914 4.580899 2.702199 10.05024 -7.332087 1.411453 21.21559 6.579674 2.733016 -24.99728 9.676095 5.471772 -18.61948 11.26379 86.27201 38.10732 -17.97016 -0 0 13.61822 -7.616431 8.720143 5.209277 6.184622 -20.15476 -1.521404 -89.59014 20.37617 18.04397 0 0 -18.72909 14.55498 11.72228 -3.396449
2.244976 102.1373 26.16378 -1.711249 2.941936 1.011618 8.433563 -30.88419 4.635364 -0 17.49622 -0 -8.08595 -3.042276 -1.344281 -4.908655 12.93803 -14.67595 -0 20.24785 -0 5.209094 -16.47603 16.18369 -2.563093 -1.941202 4.601449 2.679147 10.07543 -7.286182 1.404012 21.25805 6.515105 2.711553 -24.80674 9.557609 5.485549 -18.57263 11.2929 86.05567 38.09013 -17.64457 -0 0 13.64573 -7.901755 8.805947 5.395896 6.134804 -20.13377 -1.516386 -89.48178 20.12751 17.90383 0 0 -18.46711 14.58748 11.66905 -3.528518
2.380317 102.3092 31.17953 -2.015744 2.683725 1.281722 8.563505 -29.20243 3.863766 -0 16.63093 -0 -8.995464 -2.223301 -1.06696 -4.41755 11.96924 -13.54736 -0 25.95915 -0 3.758717 -14.23844 14.20001 -2.590153 -1.898626 4.62572 2.652791 10.0967 -7.231049 1.397841 21.30524 6.446361 2.686939 -24.60724 9.437959 5.496708 -18.52848 11.32196 85.81544 38.07583 -17.27612 -0 0 13.69137 -8.197571 8.889757 5.592826 6.080757 -20.10075 -1.507768 -89.37439 19.85579 17.76461 0 0 -18.17309 14.63345 11.61314 -3.686949
2.510176 102.7851 36.54382 -2.186335 2.093258 1.42138 8.504151 -26.28311 3.039069 -0 16.16285 -0 -9.975162 -2.022982 -0.8665247 -3.93843 10.14101 -12.39955 -0 32.96793 -0 2.358838 -11.4815 12.35346 -2.620423 -1.852789 4.654241 2.622494 10.11378 -7.16554 1.392976 21.3578 6.372819 2.659001 -24.39667 9.316235 5.505082 -18.48713 11.35107 85.54817 38.06425 -16.85922 -0 0 13.75707 -8.506612 8.971514 5.802133 6.022023 -20.05474 -1.49517 -89.26811 19.55833 17.6262 0 0 -17.84267 14.69336 11.55438 -3.873559
2.634603 103.5843 42.0969 -2.172351 1.187601 1.37095 8.275247 -22.26025 2.233123 -0 15.782 -0 -10.89154 -2.492919 -0.7768358 -3.488122 7.250067 -11.22779 -0 40.6645 -0 1.133901 -8.570712 10.88423 -2.65404 -1.803159 4.687306 2.587629 10.12649 -7.088759 1.389443 21.41613 6.294061 2.627831 -24.17283 9.191497 5.51044 -18.44847 11.38031 85.25181 38.05517 -16.38976 -0 0 13.84394 -8.831548 9.051042 6.025662 5.958439 -19.99512 -1.478578 -89.16248 19.23271 17.48774 0 0 -17.47366 14.7672 11.49215 -4.089355
2.746803 104.6438 47.64631 -1.972138 0.007464541 1.101877 7.947526 -17.45616 1.530557 -0 15.13141 -0 -11.62305 -3.564808 -0.8037918 -3.025615 3.273305 -10.02006 -0 47.89691 -0 0.1838956 -5.966315 10.03301 -2.690981 -1.749237 4.72494 2.547656 10.13457 -7.000157 1.387297 21.48037 6.21007 2.593806 -23.9342 9.063232 5.512469 -18.41242 11.40961 84.9259 38.04844 -15.86586 -0 0 13.95231 -9.173906 9.127758 6.264362 5.890252 -19.9216 -1.458252 -89.05704 18.87766 17.34827 0 0 -17.06627 14.8545 11.42579 -4.334317
2.837413 105.808 53.01381 -1.6488 -1.365975 0.6303468 7.622718 -12.3164 0.9831802 -0 13.96896 -0 -12.09704 -5.088806 -0.9074806 -2.449935 -1.564924 -8.757067 -0 53.1461 -0 -0.4154986 -4.063298 9.951618 -2.731044 -1.690504 4.766746 2.502213 10.13779 -6.89971 1.3866 21.55026 6.121287 2.557665 -23.67992 8.931328 5.510837 -18.37873 11.43876 84.572 38.0441 -15.28865 -0 0 14.08122 -9.533964 9.200782 6.5181 5.818212 -19.83446 -1.43487 -88.95101 18.49317 17.20637 0 0 -16.6239 14.95434 11.35445 -4.607257
2.905369 106.8563 58.08933 -1.312238 -2.772003 0.01424698 7.390777 -7.274177 0.578934 -0 12.28806 -0 -12.29962 -6.928932 -1.011842 -1.638871 -6.848537 -7.415639 -0 54.99098 -0 -0.6073965 -3.019386 10.602 -2.77385 -1.62646 4.81181 2.451209 10.13588 -6.788049 1.387424 21.6252 6.028675 2.520524 -23.41012 8.79618 5.505264 -18.34689 11.46736 84.19398 38.04244 -14.66285 -0 0 14.22813 -9.910359 9.268979 6.785351 5.74361 -19.73457 -1.409539 -88.84336 18.08081 17.06013 0 0 -16.15327 15.06534 11.27722 -4.905797
2.966496 107.564 62.86627 -1.065646 -3.957376 -0.6649709 7.27378 -2.61855 0.2678998 -0 10.31775 -0 -12.24343 -9.042035 -1.04624 -0.5199258 -12.10847 -6.00103 -0 52.64337 -0 -0.3900745 -2.704774 11.73618 -2.818872 -1.556617 4.858664 2.394896 10.12865 -6.666503 1.389836 21.70426 5.933692 2.483851 -23.12587 8.658664 5.495604 -18.31601 11.49489 83.7979 38.04411 -13.99688 -0 0 14.38871 -10.30006 9.331114 7.063138 5.668234 -19.62348 -1.383785 -88.73279 17.64378 16.90711 0 0 -15.66419 15.18588 11.19323 -5.226518
3.050892 107.7677 67.43664 -0.9484001 -4.65762 -1.323152 7.18666 1.556676 0.03869297 -0 8.432872 -0 -11.9176 -11.45773 -0.9942843 0.8536602 -16.91543 -4.608553 -0 46.2582 -0 0.1178432 -2.823216 13.01655 -2.865498 -1.48053 4.905339 2.333894 10.11593 -6.537044 1.393885 21.78632 5.838179 2.449363 -22.82922 8.52005 5.481921 -18.28482 11.52067 83.39158 38.0501 -13.30231 -0 0 14.55704 -10.69855 9.386032 7.347174 5.594229 -19.50335 -1.359455 -88.61787 17.18671 16.74451 0 0 -15.16861 15.31421 11.10183 -5.565277
3.192586 107.4052 71.94846 -0.9196772 -4.760438 -1.892219 6.957128 5.309709 -0.03630776 -0 7.059019 -0 -11.28859 -14.13896 -0.9053902 2.256645 -20.87375 -3.467266 -0 36.92617 -0 0.6840112 -3.096439 14.20096 -2.913099 -1.397821 4.949511 2.26916 10.09763 -6.402111 1.399583 21.87021 5.744217 2.418902 -22.52297 8.381872 5.464521 -18.25167 11.54402 82.98382 38.06164 -12.5929 -0 0 14.72596 -11.10032 9.432823 7.632215 5.523891 -19.37674 -1.338567 -88.49725 16.71533 16.56942 0 0 -14.67931 15.44869 11.00276 -5.917625
